<svg width="23" height="23" viewBox="0 0 23 23" fill="none" xmlns="http://www.w3.org/2000/svg">
<path d="M21.6292 7.37851L21.6292 7.37851L21.6294 7.38319C21.7309 9.17096 21.7309 14.5622 21.6294 16.35L21.6293 16.3533C21.5445 18.0438 21.1637 19.4535 20.0075 20.6097L20.0068 20.6104C18.8509 21.7708 17.4418 22.1514 15.7524 22.2314L15.7478 22.2316C13.96 22.3331 8.56387 22.3331 6.77611 22.2316L6.77281 22.2315C5.08298 22.1467 3.67727 21.7662 2.51569 20.609C1.3553 19.4531 0.974671 18.044 0.894674 16.3546L0.894695 16.3546L0.89443 16.35C0.792962 14.5622 0.792962 9.16608 0.89443 7.37831L0.894441 7.37831L0.894606 7.37501C0.979424 5.68337 1.35577 4.27475 2.51569 3.11924C3.67707 1.96228 5.0873 1.58173 6.77149 1.50176L6.77149 1.50178L6.7761 1.50152C8.56387 1.40005 13.96 1.40005 15.7478 1.50152L15.7478 1.50153L15.7511 1.50169C17.4416 1.58645 18.8513 1.96726 20.0075 3.12345L20.0082 3.12412C21.1686 4.2801 21.5492 5.68914 21.6292 7.37851ZM17.8989 20.8616L17.9007 20.8609C18.9888 20.4246 19.8273 19.5869 20.2592 18.5016C20.582 17.6906 20.6902 16.3902 20.7284 15.1658C20.7562 14.2718 20.747 13.3597 20.7396 12.6289C20.7367 12.3431 20.7341 12.085 20.7341 11.8666C20.7341 11.6481 20.7367 11.3901 20.7396 11.1043C20.747 10.374 20.7562 9.46263 20.7284 8.56914C20.6902 7.3451 20.5819 6.04515 20.2594 5.23204L20.2587 5.23028C19.8223 4.14211 18.9846 3.30361 17.8994 2.87174L17.8981 2.8712C17.0879 2.55153 15.7884 2.44318 14.5639 2.40442C13.6631 2.37591 12.7447 2.38472 12.0112 2.39175C11.7316 2.39443 11.479 2.39685 11.2644 2.39685C11.0459 2.39685 10.7879 2.39424 10.5021 2.39135C9.77178 2.38396 8.86043 2.37473 7.96693 2.40259C6.7429 2.44074 5.44295 2.54904 4.62984 2.87152L4.62808 2.87223C3.5399 3.3086 2.7014 4.1463 2.26953 5.2315L2.26899 5.23287C1.94933 6.04307 1.84098 7.34259 1.80222 8.56707C1.77371 9.46781 1.78252 10.3863 1.78955 11.1197C1.79223 11.3993 1.79465 11.652 1.79465 11.8666C1.79465 12.085 1.79204 12.3431 1.78914 12.6288C1.78175 13.3592 1.77253 14.2705 1.80038 15.164C1.83854 16.3881 1.94683 17.688 2.26932 18.5011L2.27002 18.5029C2.7064 19.591 3.5441 20.4295 4.6293 20.8614L4.63067 20.862C5.44086 21.1816 6.74038 21.29 7.96486 21.3287C8.86561 21.3572 9.78407 21.3484 10.5175 21.3414C10.7971 21.3387 11.0498 21.3363 11.2644 21.3363C11.4828 21.3363 11.7409 21.3389 12.0266 21.3418C12.757 21.3492 13.6683 21.3584 14.5618 21.3306C15.7859 21.2924 17.0858 21.1841 17.8989 20.8616ZM6.15402 11.8666C6.15402 9.03725 8.43505 6.75623 11.2644 6.75623C14.0937 6.75623 16.3747 9.03725 16.3747 11.8666C16.3747 14.6959 14.0937 16.9769 11.2644 16.9769C8.43505 16.9769 6.15402 14.6959 6.15402 11.8666ZM7.11691 11.8666C7.11691 14.1549 8.98183 16.014 11.2644 16.014C13.5469 16.014 15.4118 14.1549 15.4118 11.8666C15.4118 9.57872 13.5522 7.71912 11.2644 7.71912C8.97651 7.71912 7.11691 9.57872 7.11691 11.8666ZM17.9128 6.02673C17.9128 6.47691 17.5519 6.83533 17.1042 6.83533C16.654 6.83533 16.2956 6.47446 16.2956 6.02673C16.2956 5.58022 16.6577 5.21814 17.1042 5.21814C17.5507 5.21814 17.9128 5.58022 17.9128 6.02673Z" stroke="#22D4FD"/>
</svg>
